<?xml version="1.0" ?><svg viewBox="0 0 60 60" xmlns="http://www.w3.org/2000/svg"><title/><g data-name="Bot 33" id="Bot_33"><path d="M30,13c4.58,0,8-2.38,8-4.5a2.3,2.3,0,0,0-.18-.87C37.11,5.87,34.13,4,30,4s-7.11,1.87-7.81,3.62A2.3,2.3,0,0,0,22,8.5C22,10.62,25.42,13,30,13ZM24,8.37C24.36,7.57,26.51,6,30,6s5.64,1.57,6,2.38a.41.41,0,0,1,0,.12c0,.62-2.13,2.5-6,2.5s-6-1.88-6-2.5A.45.45,0,0,1,24,8.37Z"/><path d="M57,30.55V23h.94a2,2,0,0,0,2-2.23A11,11,0,0,0,49,11h-.89l1.71-2.42A1,1,0,0,0,49,7H41.82C40.83,3,36,0,30,0S19.22,2.93,18.19,7H11a1,1,0,0,0-.82,1.58L11.89,11H11A11,11,0,0,0,.07,20.77a2,2,0,0,0,2,2.23H3v7.56A8.47,8.47,0,0,0,0,37V47a2,2,0,0,0,2,2H15a2,2,0,0,0,2-2V37a8.47,8.47,0,0,0-3-6.45V23h5a1,1,0,0,0,.92-.62L22,25.32V36H21a2,2,0,0,0-2,2v6.38a2,2,0,0,0,1.1,1.79l1.42.71A14.12,14.12,0,0,0,17.35,52a5.19,5.19,0,0,0-.79.41,4.48,4.48,0,0,0-.91.74,5.47,5.47,0,0,0-1.44,5.39A2,2,0,0,0,16.13,60h6.68a2,2,0,0,0,1.93-1.47A6,6,0,0,0,25,57.07a5.41,5.41,0,0,0-1.49-3.74,8,8,0,0,1,4.69-3.11l.46.23a3,3,0,0,0,2.68,0l.46-.23a8,8,0,0,1,4.69,3.11A5.38,5.38,0,0,0,35,57.07a6,6,0,0,0,.25,1.46A2,2,0,0,0,37.18,60h6.68a2,2,0,0,0,1.93-1.43,5.46,5.46,0,0,0-1.4-5.35,4.62,4.62,0,0,0-.95-.78,5.24,5.24,0,0,0-.8-.41,14.13,14.13,0,0,0-4.17-5.14l1.42-.71A2,2,0,0,0,41,44.38V38a2,2,0,0,0-2-2H38V25.32l2.08-2.94A1,1,0,0,0,41,23h5v7.56A8.47,8.47,0,0,0,43,37V47a2,2,0,0,0,2,2H58a2,2,0,0,0,2-2V37A8.47,8.47,0,0,0,57,30.55ZM22.82,58H16.13a3.38,3.38,0,0,1-.13-.94,3.46,3.46,0,0,1,1.08-2.5,2.66,2.66,0,0,1,.55-.44,3.24,3.24,0,0,1,.79-.37,3.09,3.09,0,0,1,.73-.15h.16a3.55,3.55,0,0,1,.77,0,3.61,3.61,0,0,1,.81.25,3.07,3.07,0,0,1,.72.43,3.41,3.41,0,0,1,1.14,1.51A3.55,3.55,0,0,1,23,57.07,4.58,4.58,0,0,1,22.82,58Zm-.91-5.87L21.67,52a5.5,5.5,0,0,0-1.26-.38l-.55-.06a12.2,12.2,0,0,1,3.67-3.69L25.7,49A10.07,10.07,0,0,0,21.91,52.13ZM44,57.07a3.11,3.11,0,0,1-.13.93H37.19a4.6,4.6,0,0,1-.19-.93,3.55,3.55,0,0,1,.23-1.25,3.45,3.45,0,0,1,1.18-1.54,3,3,0,0,1,.7-.42,3.57,3.57,0,0,1,.8-.24,3.51,3.51,0,0,1,.76,0l.18,0a3.09,3.09,0,0,1,.67.14l.09,0a3.15,3.15,0,0,1,.76.36,2.8,2.8,0,0,1,.59.48A3.42,3.42,0,0,1,44,57.07Zm-3.86-5.49-.55.06a5.46,5.46,0,0,0-1.25.37l-.25.11A10.07,10.07,0,0,0,34.3,49l2.16-1.08A12.21,12.21,0,0,1,40.14,51.58ZM30,2c5.26,0,9.64,2.67,10,6.08,0,.14,0,.27,0,.42,0,3.58-4.49,6.5-10,6.5S20,12.08,20,8.5c0-.13,0-.26,0-.41C20.36,4.67,24.74,2,30,2ZM18,9c0,.06,0,.13,0,.19s0,.27.06.4.06.29.09.43.07.26.11.39.1.28.15.42.11.25.17.38.13.27.21.4l.21.36.26.38.26.35.31.36.3.32.35.33.34.3.4.31.38.28.44.28.41.25.48.25.44.22.52.22.46.19.56.19.47.15.61.16.48.12.67.12.46.08.77.08.4,0q.59,0,1.2,0t1.2,0l.4,0,.77-.08.46-.08.67-.12.48-.12.61-.16.47-.15.56-.19.46-.19.52-.22.44-.22.48-.25.41-.25.44-.28.38-.28.4-.31.34-.3.35-.33.3-.32.31-.36.26-.35.26-.38.21-.36c.07-.13.14-.26.21-.4s.11-.25.17-.38.11-.28.15-.42.08-.26.11-.39.07-.29.09-.43,0-.26.06-.4,0-.13,0-.19h5.09l-4.45,6.3-2.44,3.45h0L36.48,24h-13l-3.7-5.24h0L17.38,15.3,12.93,9ZM15,47H2V44H15Zm0-10v5H2V37a6.5,6.5,0,0,1,8.55-6.15,6.23,6.23,0,0,1,1.86,1A6.47,6.47,0,0,1,15,37Zm3-16H14a2,2,0,0,0-2,2v6.26c-.22-.1-.46-.19-.69-.27l-.14-.05a8.35,8.35,0,0,0-1.08-.27l-.47-.07c-.27,0-.54-.06-.81-.07l-.31,0-.32,0c-.27,0-.54,0-.81.06l-.47.07a8.35,8.35,0,0,0-1.07.27L5.68,29c-.23.08-.46.16-.68.26V23a2,2,0,0,0-2-2H2.06A9,9,0,0,1,11,13h2.3l2.48,3.51L18,19.65ZM39,44.38l-7.67,3.83-.1,0h0l-.79.39a1,1,0,0,1-.89,0l-.79-.39h0l-.1,0L21,44.38V38H39ZM24,36V26H36V36ZM42,21V19.65l2.22-3.14L46.7,13H49a9,9,0,0,1,8.94,8H57a2,2,0,0,0-2,2v6.26c-.24-.11-.49-.21-.75-.29l-.06,0A8.31,8.31,0,0,0,53,28.65l-.29,0a7.7,7.7,0,0,0-2.46,0l-.29,0a8.3,8.3,0,0,0-1.16.29l-.08,0c-.25.09-.49.18-.73.29V23a2,2,0,0,0-2-2ZM58,47H45V44H58Zm0-5H45V37a6.5,6.5,0,0,1,8.55-6.15,6.23,6.23,0,0,1,1.86,1A6.47,6.47,0,0,1,58,37Z"/></g></svg>