<?xml version="1.0" ?><svg viewBox="0 0 60 60" xmlns="http://www.w3.org/2000/svg"><title/><g data-name="Bot 33" id="Bot_33"><path d="M12,42H8.67a1,1,0,0,0,0,2H12a1,1,0,0,0,0-2Z"/><path d="M12,54H8.67a1,1,0,0,0,0,2H12a1,1,0,0,0,0-2Z"/><path d="M12,46H7a1,1,0,0,0,0,2h5a1,1,0,0,0,0-2Z"/><path d="M12,50H7a1,1,0,0,0,0,2h5a1,1,0,0,0,0-2Z"/><path d="M48,44h3.33a1,1,0,0,0,0-2H48a1,1,0,0,0,0,2Z"/><path d="M48,56h3.33a1,1,0,0,0,0-2H48a1,1,0,0,0,0,2Z"/><path d="M48,48h5a1,1,0,0,0,0-2H48a1,1,0,0,0,0,2Z"/><path d="M48,52h5a1,1,0,0,0,0-2H48a1,1,0,0,0,0,2Z"/><path d="M59,6a1,1,0,0,0-1,1v3H55.86a3.94,3.94,0,0,0-2.4-2.71A3.55,3.55,0,0,0,53,7.15V5h3a1,1,0,0,0,0-2H53a2,2,0,0,0-2,2V7.13a4,4,0,0,0-2.09,6.39A5.44,5.44,0,0,1,41,17.36V16a3,3,0,0,0-3-3H37V2a2,2,0,0,0-2-2H25a2,2,0,0,0-2,2V13H22a3,3,0,0,0-3,3v1.36a5.44,5.44,0,0,1-7.91-3.85A4,4,0,0,0,9,7.13V5A2,2,0,0,0,7,3H4A1,1,0,0,0,4,5H7V7.15a3.29,3.29,0,0,0-.42.13A4,4,0,0,0,4.14,10H2V7A1,1,0,0,0,0,7v3a2,2,0,0,0,2,2H4.14A3.9,3.9,0,0,0,5,13.65,11.44,11.44,0,0,0,19,23.71V35a3,3,0,0,0,3,3h1v7H17V40a2,2,0,0,0-2-2H2.5A2.5,2.5,0,0,0,0,40.5v1A2.49,2.49,0,0,0,.5,43,2.49,2.49,0,0,0,0,44.5v1A2.49,2.49,0,0,0,.5,47,2.49,2.49,0,0,0,0,48.5v1A2.49,2.49,0,0,0,.5,51,2.49,2.49,0,0,0,0,52.5v1A2.49,2.49,0,0,0,.5,55,2.49,2.49,0,0,0,0,56.5v1A2.5,2.5,0,0,0,2.5,60H15a2,2,0,0,0,2-2V54h6a2,2,0,0,0,2,2H35a2,2,0,0,0,2-2h6v4a2,2,0,0,0,2,2H57.5A2.5,2.5,0,0,0,60,57.5v-1a2.49,2.49,0,0,0-.5-1.5,2.49,2.49,0,0,0,.5-1.5v-1a2.49,2.49,0,0,0-.5-1.5,2.49,2.49,0,0,0,.5-1.5v-1a2.49,2.49,0,0,0-.5-1.5,2.49,2.49,0,0,0,.5-1.5v-1a2.49,2.49,0,0,0-.5-1.5,2.49,2.49,0,0,0,.5-1.5v-1A2.5,2.5,0,0,0,57.5,38H45a2,2,0,0,0-2,2v5H37V38h1a3,3,0,0,0,3-3V23.71A11.44,11.44,0,0,0,55,13.65a3.93,3.93,0,0,0,.9-1.65H58a2,2,0,0,0,2-2V7A1,1,0,0,0,59,6Zm-8.78,4.09A2,2,0,0,1,52,9H52a2,2,0,0,1,.7.15,2,2,0,0,1,.58,3.36,2,2,0,0,1-.92.46,1.91,1.91,0,0,1-.75,0,2,2,0,0,1-1-.49l-.09-.06a2,2,0,0,1-.35-2.32ZM25,14V9H35V24H25ZM25,2H35V7H25ZM7.32,9.13A1.73,1.73,0,0,1,8,9a2,2,0,0,1,2,2,2,2,0,0,1-.58,1.41l-.09.06a2,2,0,0,1-.92.47l-.06,0a1.82,1.82,0,0,1-.45,0l-.28,0A2,2,0,0,1,6,11,2,2,0,0,1,7.32,9.13ZM16.47,22a9.53,9.53,0,0,1-9.18-7.06,4.15,4.15,0,0,0,.57.05H8a3.57,3.57,0,0,0,.74-.07h0l.07,0a3.72,3.72,0,0,0,.46-.12h0A7.49,7.49,0,0,0,19,19.56v2.1A9.51,9.51,0,0,1,16.47,22ZM15,58H2.5a.5.5,0,0,1-.5-.5v-1a.5.5,0,0,1,.5-.5,1,1,0,0,0,0-2,.5.5,0,0,1-.5-.5v-1a.5.5,0,0,1,.5-.5,1,1,0,0,0,0-2,.5.5,0,0,1-.5-.5v-1a.5.5,0,0,1,.5-.5,1,1,0,0,0,0-2,.5.5,0,0,1-.5-.5v-1a.5.5,0,0,1,.5-.5,1,1,0,0,0,0-2,.5.5,0,0,1-.5-.5v-1a.5.5,0,0,1,.5-.5H15V58Zm2-6V47h6v5ZM45,40H57.5a.5.5,0,0,1,.5.5v1a.5.5,0,0,1-.5.5,1,1,0,0,0,0,2,.5.5,0,0,1,.5.5v1a.5.5,0,0,1-.5.5,1,1,0,0,0,0,2,.5.5,0,0,1,.5.5v1a.5.5,0,0,1-.5.5,1,1,0,0,0,0,2,.5.5,0,0,1,.5.5v1a.5.5,0,0,1-.5.5,1,1,0,0,0,0,2,.5.5,0,0,1,.5.5v1a.5.5,0,0,1-.5.5H45V40Zm-2,7v5H37V47Zm-8-1h0v7h0v1H25V38H35Zm4-11a1,1,0,0,1-1,1H22a1,1,0,0,1-1-1V16a1,1,0,0,1,1-1h1v9a2,2,0,0,0,2,2H35a2,2,0,0,0,2-2V15h1a1,1,0,0,1,1,1V35Zm4.53-13A9.51,9.51,0,0,1,41,21.66v-2.1a7.49,7.49,0,0,0,9.68-4.78h0a3.39,3.39,0,0,0,.53.13h.17A3.88,3.88,0,0,0,52,15h0a3.84,3.84,0,0,0,.46,0l.22,0A9.53,9.53,0,0,1,43.53,22Z"/><path d="M32,11H28a1,1,0,0,0-1,1v4a1,1,0,0,0,1,1h4a1,1,0,0,0,1-1V12A1,1,0,0,0,32,11Zm-1,4H29V13h2Z"/></g></svg>