<?xml version="1.0" ?><svg viewBox="0 0 60 60" xmlns="http://www.w3.org/2000/svg"><defs><style>.cls-1{fill:#46b29d;}.cls-2{fill:#65ddb9;}</style></defs><title/><g id="Roberto"><path class="cls-1" d="M56,31V23a1,1,0,0,1,1-1h.94a1,1,0,0,0,1-1.12A10,10,0,0,0,49,12H46.18L49,8H41c-.38-3.91-5.14-7-11-7S19.4,4.09,19,8H11l2.82,4H11a10,10,0,0,0-9.94,8.88,1,1,0,0,0,1,1.12H3a1,1,0,0,1,1,1v8a7.43,7.43,0,0,0-3,6V47a1,1,0,0,0,1,1H15a1,1,0,0,0,1-1V37a7.43,7.43,0,0,0-3-6V23a1,1,0,0,1,1-1h4a1,1,0,0,0,1-1V19.33L23,25V37H21a1,1,0,0,0-1,1v6.38a1,1,0,0,0,.55.89l2.94,1.47a13.06,13.06,0,0,0-5.41,6.06,4.08,4.08,0,0,0-1,.47,3.64,3.64,0,0,0-.75.61,4.47,4.47,0,0,0-1.17,4.4,1,1,0,0,0,1,.71h6.68a1,1,0,0,0,1-.73,5.55,5.55,0,0,0,.22-1.2,4.57,4.57,0,0,0-.3-1.62,4.4,4.4,0,0,0-1.49-2,9,9,0,0,1,6.11-4.33l.79.39a2,2,0,0,0,1.79,0l.79-.39a9,9,0,0,1,6.11,4.33,4.4,4.4,0,0,0-1.49,2,4.57,4.57,0,0,0-.3,1.62,5.55,5.55,0,0,0,.22,1.2,1,1,0,0,0,1,.73h6.68a1,1,0,0,0,1-.71,4.47,4.47,0,0,0-1.17-4.4,3.64,3.64,0,0,0-.75-.61,4.08,4.08,0,0,0-1-.47,13.06,13.06,0,0,0-5.41-6.06l2.94-1.47a1,1,0,0,0,.55-.89V38a1,1,0,0,0-1-1H37V25l4-5.67V21a1,1,0,0,0,1,1h4a1,1,0,0,1,1,1v8a7.43,7.43,0,0,0-3,6V47a1,1,0,0,0,1,1H58a1,1,0,0,0,1-1V37A7.43,7.43,0,0,0,56,31ZM23.11,8c.54-1.34,3.16-3,6.89-3s6.35,1.66,6.89,3a1.33,1.33,0,0,1,.11.5c0,1.39-2.79,3.5-7,3.5s-7-2.11-7-3.5A1.33,1.33,0,0,1,23.11,8Z"/><path class="cls-2" d="M49,8l-2.82,4L41,19.33,37,25H23l-4-5.67L13.82,12,11,8h8c0,.17,0,.33,0,.5,0,4.14,4.92,7.5,11,7.5s11-3.36,11-7.5c0-.17,0-.33,0-.5Z"/><path class="cls-2" d="M16,37v6H1V37a7.43,7.43,0,0,1,3-6,7.42,7.42,0,0,1,9,0A7.43,7.43,0,0,1,16,37Z"/><path class="cls-2" d="M24,57.07a5.55,5.55,0,0,1-.22,1.2,1,1,0,0,1-1,.73H16.13a1,1,0,0,1-1-.71,4.47,4.47,0,0,1,1.17-4.4,3.64,3.64,0,0,1,.75-.61,4.08,4.08,0,0,1,1-.47,4.15,4.15,0,0,1,1.42-.24,4.31,4.31,0,0,1,1.78.37,3.93,3.93,0,0,1,.93.55,4.4,4.4,0,0,1,1.49,2A4.57,4.57,0,0,1,24,57.07Z"/><path class="cls-2" d="M44,37v6H59V37a7.43,7.43,0,0,0-3-6,7.42,7.42,0,0,0-9,0A7.43,7.43,0,0,0,44,37Z"/><path class="cls-2" d="M40,38v6.38a1,1,0,0,1-.55.89l-2.94,1.47-4.83,2.41-.79.39a2,2,0,0,1-1.79,0l-.79-.39-4.83-2.41-2.94-1.47a1,1,0,0,1-.55-.89V38a1,1,0,0,1,1-1H39A1,1,0,0,1,40,38Z"/><path class="cls-2" d="M36,57.07a5.55,5.55,0,0,0,.22,1.2,1,1,0,0,0,1,.73h6.68a1,1,0,0,0,1-.71,4.47,4.47,0,0,0-1.17-4.4,3.64,3.64,0,0,0-.75-.61,4.08,4.08,0,0,0-1-.47,4.15,4.15,0,0,0-1.42-.24,4.31,4.31,0,0,0-1.78.37,3.93,3.93,0,0,0-.93.55,4.4,4.4,0,0,0-1.49,2A4.57,4.57,0,0,0,36,57.07Z"/></g></svg>