<?xml version="1.0" ?><svg viewBox="0 0 60 60" xmlns="http://www.w3.org/2000/svg"><defs><style>.cls-1{fill:#2c3e50;}.cls-2{fill:#464f5d;}.cls-3{fill:#a5a5a4;}.cls-4{fill:#b0d3f0;}.cls-5{fill:#d1d4d1;}.cls-6{fill:#90bae1;}</style></defs><title/><g id="Roberto"><path class="cls-1" d="M5,9H2A2,2,0,0,1,0,7V4A1,1,0,0,1,2,4V7H5A1,1,0,0,1,5,9Z"/><path class="cls-1" d="M8,6A1,1,0,0,1,7,5V2H4A1,1,0,0,1,4,0H7A2,2,0,0,1,9,2V5A1,1,0,0,1,8,6Z"/><path class="cls-1" d="M58,9H55a1,1,0,0,1,0-2h3V4a1,1,0,0,1,2,0V7A2,2,0,0,1,58,9Z"/><path class="cls-1" d="M52,6a1,1,0,0,1-1-1V2a2,2,0,0,1,2-2h3a1,1,0,0,1,0,2H53V5A1,1,0,0,1,52,6Z"/><path class="cls-1" d="M1,48a1,1,0,0,1-1-1V44a2,2,0,0,1,2-2H5a1,1,0,0,1,0,2H2v3A1,1,0,0,1,1,48Z"/><path class="cls-1" d="M7,51H4a1,1,0,0,1,0-2H7V46a1,1,0,0,1,2,0v3A2,2,0,0,1,7,51Z"/><path class="cls-1" d="M59,48a1,1,0,0,1-1-1V44H55a1,1,0,0,1,0-2h3a2,2,0,0,1,2,2v3A1,1,0,0,1,59,48Z"/><path class="cls-1" d="M56,51H53a2,2,0,0,1-2-2V46a1,1,0,0,1,2,0v3h3a1,1,0,0,1,0,2Z"/><path class="cls-2" d="M28,45.9V52H22V46a2,2,0,0,1,.6-1.42A19.86,19.86,0,0,0,28,45.9Z"/><path class="cls-3" d="M30,52v7H18.33a1,1,0,0,1-1-1.27l1.43-5a1,1,0,0,1,1-.73Z"/><path class="cls-2" d="M38,46v6H32V45.9a19.86,19.86,0,0,0,5.4-1.32A2,2,0,0,1,38,46Z"/><path class="cls-3" d="M30,52v7H41.67a1,1,0,0,0,1-1.27l-1.43-5a1,1,0,0,0-1-.73Z"/><path class="cls-4" d="M54,40.75a2.78,2.78,0,0,0-1-.6h0a1.72,1.72,0,0,0-.39-.1A3.07,3.07,0,0,0,52,40a3.14,3.14,0,0,0-2,.78,6.44,6.44,0,0,0-2.78-4.61A20,20,0,0,1,32,45.9a20,20,0,0,1-4,0,20,20,0,0,1-15.21-9.73A6.44,6.44,0,0,0,10,40.78a2.8,2.8,0,0,0-1.46-.72A2.78,2.78,0,0,0,8,40a3.07,3.07,0,0,0-.53,0,1.72,1.72,0,0,0-.39.1H7a2.78,2.78,0,0,0-1,.6,10.39,10.39,0,0,1,5.09-8.25,19.95,19.95,0,0,1,.3-13.82A10.43,10.43,0,0,1,6,10.25a2.78,2.78,0,0,0,1,.6h0a1.72,1.72,0,0,0,.39.1A3.08,3.08,0,0,0,8,11a2.79,2.79,0,0,0,.58-.06A2.8,2.8,0,0,0,10,10.22a6.5,6.5,0,0,0,3.22,4.9,20,20,0,0,1,33.54,0A6.5,6.5,0,0,0,50,10.22,3.14,3.14,0,0,0,52,11a3.08,3.08,0,0,0,.53,0,1.72,1.72,0,0,0,.39-.1h0a2.78,2.78,0,0,0,1-.6,10.43,10.43,0,0,1-5.39,8.43,19.95,19.95,0,0,1,.3,13.82A10.39,10.39,0,0,1,54,40.75Z"/><path class="cls-2" d="M13.23,15.12a18.75,18.75,0,0,0-1.84,3.56A10.43,10.43,0,0,1,6,10.25a2.78,2.78,0,0,0,1,.6,3,3,0,0,1-.11-5.64A2.72,2.72,0,0,1,8,5a3,3,0,0,1,2,5.2l0,0A6.5,6.5,0,0,0,13.23,15.12Z"/><path class="cls-2" d="M53,10.85a2.78,2.78,0,0,0,1-.6,10.43,10.43,0,0,1-5.39,8.43,18.75,18.75,0,0,0-1.84-3.56A6.5,6.5,0,0,0,50,10.22l0,0A3,3,0,0,1,52,5a2.72,2.72,0,0,1,1.07.21A3,3,0,0,1,53,10.85Z"/><path class="cls-2" d="M10,40.78l0,0A3,3,0,0,1,8,46a2.72,2.72,0,0,1-1.07-.21A3,3,0,0,1,7,40.15a2.78,2.78,0,0,0-1,.6,10.39,10.39,0,0,1,5.09-8.25,19.13,19.13,0,0,0,1.7,3.67A6.44,6.44,0,0,0,10,40.78Z"/><path class="cls-2" d="M55,43a3,3,0,0,1-1.93,2.79A2.72,2.72,0,0,1,52,46a3,3,0,0,1-2-5.2l0,0a6.44,6.44,0,0,0-2.78-4.61,19.13,19.13,0,0,0,1.7-3.67A10.39,10.39,0,0,1,54,40.75a2.78,2.78,0,0,0-1-.6A3.08,3.08,0,0,1,55,43Z"/><path class="cls-3" d="M11,8A3,3,0,0,0,8,5a2.72,2.72,0,0,0-1.07.21,3,3,0,0,0-.9,5,2.94,2.94,0,0,0,1.41.7A3.07,3.07,0,0,0,8,11a2.78,2.78,0,0,0,.58-.06A2.8,2.8,0,0,0,10,10.22l0,0A3,3,0,0,0,11,8Z"/><path class="cls-3" d="M49,8a3,3,0,0,1,3-3,2.72,2.72,0,0,1,1.07.21,3,3,0,0,1,.9,5,2.94,2.94,0,0,1-1.41.7A3.07,3.07,0,0,1,52,11a3.14,3.14,0,0,1-2-.78l0,0A3,3,0,0,1,49,8Z"/><path class="cls-3" d="M11,43a3,3,0,0,1-3,3,2.72,2.72,0,0,1-1.07-.21,3,3,0,0,1-.9-5A2.94,2.94,0,0,1,7.44,40,3.07,3.07,0,0,1,8,40a2.78,2.78,0,0,1,.58.06,2.8,2.8,0,0,1,1.46.72l0,0A3,3,0,0,1,11,43Z"/><path class="cls-3" d="M49,43a3,3,0,0,0,3,3,2.72,2.72,0,0,0,1.07-.21,3,3,0,0,0,.9-5,2.94,2.94,0,0,0-1.41-.7A3.07,3.07,0,0,0,52,40a3.14,3.14,0,0,0-2,.78l0,0A3,3,0,0,0,49,43Z"/><path class="cls-5" d="M38,26a8,8,0,1,1-8-8A8,8,0,0,1,38,26Z"/><circle class="cls-1" cx="30" cy="26" r="3"/><path class="cls-6" d="M50,26a19.7,19.7,0,0,1-1.09,6.5,19.13,19.13,0,0,1-1.7,3.67A20,20,0,0,1,32,45.9a20,20,0,0,1-4,0,20,20,0,0,1-15.21-9.73,19.13,19.13,0,0,1-1.7-3.67A19.7,19.7,0,0,1,10,26H22a8,8,0,0,0,16,0Z"/></g></svg>