<?xml version="1.0" ?><svg viewBox="0 0 60 60" xmlns="http://www.w3.org/2000/svg"><defs><style>.cls-1{fill:#464f5d;}.cls-2{fill:#2c2f38;}.cls-3{fill:#5e5f62;}.cls-4{fill:#a5a5a4;}.cls-5{fill:#b0d3f0;}.cls-6{fill:#90bae1;}.cls-7{fill:#9fc9d3;}</style></defs><title/><g id="Roberto"><path class="cls-1" d="M18,13h4a0,0,0,0,1,0,0v5a0,0,0,0,1,0,0H18a1,1,0,0,1-1-1V14A1,1,0,0,1,18,13Z"/><path class="cls-1" d="M37,13h5a1,1,0,0,1,1,1v3a1,1,0,0,1-1,1H37a0,0,0,0,1,0,0V13A0,0,0,0,1,37,13Z"/><rect class="cls-1" height="7" width="30.14" x="14.99" y="46"/><path class="cls-2" d="M24,35.14H36a0,0,0,0,1,0,0V54a1,1,0,0,1-1,1H25a1,1,0,0,1-1-1V35.14A0,0,0,0,1,24,35.14Z"/><path class="cls-3" d="M16,40V58a1,1,0,0,1-1,1H2.5A1.5,1.5,0,0,1,1,57.5v-1A1.5,1.5,0,0,1,2.5,55,1.5,1.5,0,0,1,1,53.5v-1A1.5,1.5,0,0,1,2.5,51,1.5,1.5,0,0,1,1,49.5v-1A1.5,1.5,0,0,1,2.5,47,1.5,1.5,0,0,1,1,45.5v-1A1.5,1.5,0,0,1,2.5,43,1.5,1.5,0,0,1,1,41.5v-1A1.5,1.5,0,0,1,2.5,39H15A1,1,0,0,1,16,40Z"/><path class="cls-2" d="M12,44H8.67a1,1,0,0,1,0-2H12a1,1,0,0,1,0,2Z"/><path class="cls-2" d="M12,56H8.67a1,1,0,0,1,0-2H12a1,1,0,0,1,0,2Z"/><path class="cls-2" d="M12,48H7a1,1,0,0,1,0-2h5a1,1,0,0,1,0,2Z"/><path class="cls-2" d="M12,52H7a1,1,0,0,1,0-2h5a1,1,0,0,1,0,2Z"/><path class="cls-3" d="M44,40V58a1,1,0,0,0,1,1H57.5A1.5,1.5,0,0,0,59,57.5v-1A1.5,1.5,0,0,0,57.5,55,1.5,1.5,0,0,0,59,53.5v-1A1.5,1.5,0,0,0,57.5,51,1.5,1.5,0,0,0,59,49.5v-1A1.5,1.5,0,0,0,57.5,47,1.5,1.5,0,0,0,59,45.5v-1A1.5,1.5,0,0,0,57.5,43,1.5,1.5,0,0,0,59,41.5v-1A1.5,1.5,0,0,0,57.5,39H45A1,1,0,0,0,44,40Z"/><path class="cls-2" d="M51.33,44H48a1,1,0,0,1,0-2h3.33a1,1,0,0,1,0,2Z"/><path class="cls-2" d="M51.33,56H48a1,1,0,0,1,0-2h3.33a1,1,0,0,1,0,2Z"/><path class="cls-2" d="M53,48H48a1,1,0,0,1,0-2h5a1,1,0,0,1,0,2Z"/><path class="cls-2" d="M53,52H48a1,1,0,0,1,0-2h5a1,1,0,0,1,0,2Z"/><path class="cls-4" d="M1,12a1,1,0,0,0-1,1v3a2,2,0,0,0,2,2H5a1,1,0,0,0,0-2H2V13A1,1,0,0,0,1,12Z"/><path class="cls-4" d="M7,9H4a1,1,0,0,0,0,2H7v3a1,1,0,0,0,2,0V11A2,2,0,0,0,7,9Z"/><path class="cls-4" d="M59,12a1,1,0,0,0-1,1v3H55a1,1,0,0,0,0,2h3a2,2,0,0,0,2-2V13A1,1,0,0,0,59,12Z"/><path class="cls-4" d="M56,9H53a2,2,0,0,0-2,2v3a1,1,0,0,0,2,0V11h3a1,1,0,0,0,0-2Z"/><path class="cls-5" d="M54,19.25a3,3,0,0,0-.9-5A2.72,2.72,0,0,0,52,14a3,3,0,0,0-2,5.2l0,0A6.49,6.49,0,0,1,40,24v0a1,1,0,0,0-1-1H21a1,1,0,0,0-1,1v0a6.49,6.49,0,0,1-10-4.73l0,0A3,3,0,0,0,8,14a2.72,2.72,0,0,0-1.07.21,3,3,0,0,0-.9,5,2.94,2.94,0,0,0,1.41.7A2.83,2.83,0,0,1,6,19.25a10.5,10.5,0,0,0,14,9.14V36a1,1,0,0,0,1,1H39a1,1,0,0,0,1-1V28.39a10.5,10.5,0,0,0,14-9.14,2.83,2.83,0,0,1-1.44.7A2.94,2.94,0,0,0,54,19.25Z"/><path class="cls-1" d="M11,17a3,3,0,0,0-3-3,2.72,2.72,0,0,0-1.07.21,3,3,0,0,0-.9,5,2.94,2.94,0,0,0,1.41.7A3.07,3.07,0,0,0,8,20a2.78,2.78,0,0,0,.58-.06A2.8,2.8,0,0,0,10,19.22l0,0A3,3,0,0,0,11,17Z"/><path class="cls-4" d="M20,28.39V24a6.49,6.49,0,0,1-10-4.73,2.8,2.8,0,0,1-1.46.72A2.78,2.78,0,0,1,8,20a3.07,3.07,0,0,1-.53,0A2.83,2.83,0,0,1,6,19.25a10.5,10.5,0,0,0,14,9.14Z"/><path class="cls-1" d="M49,17a3,3,0,0,1,3-3,2.72,2.72,0,0,1,1.07.21,3,3,0,0,1,.9,5,2.94,2.94,0,0,1-1.41.7A3.07,3.07,0,0,1,52,20a3.14,3.14,0,0,1-2-.78l0,0A3,3,0,0,1,49,17Z"/><path class="cls-4" d="M40,28.39V24a6.49,6.49,0,0,0,10-4.73A3.14,3.14,0,0,0,52,20a3.07,3.07,0,0,0,.53,0,2.83,2.83,0,0,0,1.44-.7,10.5,10.5,0,0,1-14,9.14Z"/><path class="cls-1" d="M25,16a1,1,0,0,1-.71-.29l-.12-.15a.74.74,0,0,1-.09-.18A.65.65,0,0,1,24,15.2a1.38,1.38,0,0,1,0-.2,1,1,0,0,1,.08-.38,1,1,0,0,1,.21-.33l.15-.12a.76.76,0,0,1,.18-.09A.63.63,0,0,1,24.8,14a.85.85,0,0,1,.39,0,.61.61,0,0,1,.19.06.56.56,0,0,1,.17.09l.16.12a1,1,0,0,1,.21.33A1,1,0,0,1,26,15a1.26,1.26,0,0,1,0,.2.62.62,0,0,1-.06.18.78.78,0,0,1-.09.18l-.12.15A1.05,1.05,0,0,1,25,16Z"/><path class="cls-1" d="M35,16l-.2,0-.18-.06a.76.76,0,0,1-.18-.09l-.15-.12a1.15,1.15,0,0,1-.21-.33A1,1,0,0,1,34,15a1.25,1.25,0,0,1,0-.19.62.62,0,0,1,.06-.19.55.55,0,0,1,.09-.17l.12-.16.15-.12a.76.76,0,0,1,.18-.09A.63.63,0,0,1,34.8,14a1,1,0,0,1,.91.27l.12.16a.57.57,0,0,1,.09.17.59.59,0,0,1,.06.19A1.14,1.14,0,0,1,36,15a1,1,0,0,1-.08.38,1.15,1.15,0,0,1-.21.33l-.15.12a.76.76,0,0,1-.18.09L35.2,16Z"/><path class="cls-1" d="M18,13h3a0,0,0,0,1,0,0v5a0,0,0,0,1,0,0H18a1,1,0,0,1-1-1V14A1,1,0,0,1,18,13Z"/><path class="cls-1" d="M39,13h3a1,1,0,0,1,1,1v3a1,1,0,0,1-1,1H39a0,0,0,0,1,0,0V13A0,0,0,0,1,39,13Z"/><path class="cls-6" d="M30,1a9,9,0,0,0-9,9V23H39V10A9,9,0,0,0,30,1Z"/><rect class="cls-7" height="9" width="18" x="21" y="10"/><path class="cls-1" d="M25,16a1,1,0,0,1-.71-.29l-.12-.15a.74.74,0,0,1-.09-.18A.65.65,0,0,1,24,15.2a1.38,1.38,0,0,1,0-.2,1,1,0,0,1,.08-.38,1,1,0,0,1,.21-.33l.15-.12a.76.76,0,0,1,.18-.09A.63.63,0,0,1,24.8,14a.85.85,0,0,1,.39,0,.61.61,0,0,1,.19.06.56.56,0,0,1,.17.09l.16.12a1,1,0,0,1,.21.33A1,1,0,0,1,26,15a1.26,1.26,0,0,1,0,.2.62.62,0,0,1-.06.18.78.78,0,0,1-.09.18l-.12.15A1.05,1.05,0,0,1,25,16Z"/><path class="cls-1" d="M35,16l-.2,0-.18-.06a.76.76,0,0,1-.18-.09l-.15-.12a1.15,1.15,0,0,1-.21-.33A1,1,0,0,1,34,15a1.25,1.25,0,0,1,0-.19.62.62,0,0,1,.06-.19.55.55,0,0,1,.09-.17l.12-.16.15-.12a.76.76,0,0,1,.18-.09A.63.63,0,0,1,34.8,14a1,1,0,0,1,.91.27l.12.16a.57.57,0,0,1,.09.17.59.59,0,0,1,.06.19A1.14,1.14,0,0,1,36,15a1,1,0,0,1-.08.38,1.15,1.15,0,0,1-.21.33l-.15.12a.76.76,0,0,1-.18.09L35.2,16Z"/></g></svg>