<?xml version="1.0" ?><svg viewBox="0 0 60 60" xmlns="http://www.w3.org/2000/svg"><title/><g data-name="Bot 33" id="Bot_33"><path d="M59,29c0-8.93-7.34-10.61-10-10.93,0-.38,0-.78-.09-1.18h0a19,19,0,0,0-37.77,0h0c0,.41-.07.8-.09,1.18-2.69.32-10,2-10,10.93v8.72A4.39,4.39,0,0,0,0,40.5a4.51,4.51,0,0,0,.12,1A2,2,0,0,0,2,43H6.91a2,2,0,0,0,1.95-1.54,4.26,4.26,0,0,0,.15-1,4.75,4.75,0,0,0-.3-1.63A4.65,4.65,0,0,0,8,37.71V29c0-.11,0-2.48,3-2.92V43a2,2,0,0,0,2,2h1.51a12.31,12.31,0,0,0,.67,8.73,5.39,5.39,0,0,0-1,4.83A2,2,0,0,0,16.13,60h7.42a1,1,0,0,0,.89-.55,2.76,2.76,0,0,0,.19-.44A5,5,0,0,0,25,57.07a5.57,5.57,0,0,0-.37-2,5.49,5.49,0,0,0-3-3.07,5.88,5.88,0,0,0-.77-.26A6.39,6.39,0,0,1,20,48.5,6.32,6.32,0,0,1,21.06,45H38.94A6.32,6.32,0,0,1,40,48.5a6.39,6.39,0,0,1-.9,3.26,6,6,0,0,0-.78.26,5.49,5.49,0,0,0-3,3.07,5.57,5.57,0,0,0-.36,2,4.85,4.85,0,0,0,.33,1.85,3.36,3.36,0,0,0,.22.53,1,1,0,0,0,.89.55h7.42a2,2,0,0,0,1.93-1.43,5.4,5.4,0,0,0-1-4.84A12.3,12.3,0,0,0,45.49,45H47a2,2,0,0,0,2-2V26.08A3.11,3.11,0,0,1,52,29v8.71a4.22,4.22,0,0,0-1,2.79,4.27,4.27,0,0,0,.15,1A2,2,0,0,0,53.09,43H58a2,2,0,0,0,1.93-1.49,4.47,4.47,0,0,0,.12-1,4.38,4.38,0,0,0-1-2.78ZM13,25V19c0-.33,0-.66,0-1h8.91l-.05.12q-.17.36-.31.72l-.05.13a9,9,0,0,0-.26.89c0,.08,0,.16-.05.24q-.08.35-.12.7c0,.09,0,.18,0,.26a8,8,0,0,0,0,1.86c0,.09,0,.18,0,.26s.07.47.12.7c0,.08,0,.16.05.24a9.06,9.06,0,0,0,.26.89l.05.13q.14.37.31.72l.05.12H13Zm11.54,1.37A6.92,6.92,0,0,1,23,22a7,7,0,0,1,.18-1.49,6.87,6.87,0,0,1,.21-.83,7,7,0,0,1,1.15-2.05h0A7,7,0,0,1,30,15a7.11,7.11,0,0,1,.79,0,7,7,0,0,1,4.67,11.33h0a7,7,0,0,1-10.92,0Zm13.57-.5q.17-.36.31-.72l.05-.13a9,9,0,0,0,.26-.89c0-.08,0-.16.05-.24q.08-.35.12-.7c0-.09,0-.18,0-.26a8,8,0,0,0,0-1.86c0-.09,0-.18,0-.26s-.07-.47-.12-.7c0-.08,0-.16-.05-.23a9,9,0,0,0-.26-.89l-.05-.13q-.14-.37-.31-.72L38.06,18H47c0,.34,0,.67,0,1v7H38.06ZM30,2A16.93,16.93,0,0,1,42,7a17.11,17.11,0,0,1,4.71,9h-10l-.21-.21-.31-.31-.41-.36-.34-.28L35,14.53l-.36-.24L34.18,14l-.38-.2-.51-.21-.39-.15-.56-.16-.38-.1c-.21,0-.43-.08-.64-.11L31,13.06a8.9,8.9,0,0,0-2,0l-.33.05c-.22,0-.43.06-.64.11l-.38.1-.55.16-.4.15-.5.21-.39.2-.46.25-.38.25-.42.3-.36.29-.39.35-.32.33-.2.2h-10A17,17,0,0,1,30,2ZM6.91,41l-4.84.06A2.5,2.5,0,0,1,2,40.5a2.42,2.42,0,0,1,.71-1.73l.07-.07a1.81,1.81,0,0,1,.39-.31,2.41,2.41,0,0,1,.56-.26l.14,0A2.46,2.46,0,0,1,4.47,38a2.79,2.79,0,0,1,.47,0,2.17,2.17,0,0,1,.56.17,2.46,2.46,0,0,1,.79.54,2.62,2.62,0,0,1,.54.83A2.77,2.77,0,0,1,7,40.5,2.74,2.74,0,0,1,6.91,41ZM6,29v7.26l-.09,0a3.68,3.68,0,0,0-.67-.17A4.55,4.55,0,0,0,4.5,36a4.49,4.49,0,0,0-.71.06l-.22,0a4.41,4.41,0,0,0-.46.12l-.11,0V29c0-7.16,5.64-8.63,8-8.92v4C7.08,24.48,6,27.4,6,29ZM22.76,55.8A3.55,3.55,0,0,1,23,57.07a3.21,3.21,0,0,1-.13.93H16.13a3.37,3.37,0,0,1-.13-.94,3.46,3.46,0,0,1,1.08-2.5,2.68,2.68,0,0,1,.55-.44,3.4,3.4,0,0,1,.55-.28l.09,0a3.55,3.55,0,0,1,.53-.16h.07a3.57,3.57,0,0,1,.56-.06h.05a3.39,3.39,0,0,1,.61,0,3.53,3.53,0,0,1,.8.24A3.49,3.49,0,0,1,22.76,55.8ZM18.6,51.64l-.14,0-.15,0a5.41,5.41,0,0,0-.8.24l-.3.14c-.16.08-.33.14-.49.23A10.55,10.55,0,0,1,16.6,45h2.16a8.49,8.49,0,0,0-.15,6.64ZM43.87,58H37.13a3.21,3.21,0,0,1-.12-.93,3.55,3.55,0,0,1,.23-1.26,3.5,3.5,0,0,1,1.88-2,3.57,3.57,0,0,1,.8-.24,3.53,3.53,0,0,1,2.46.51,2.8,2.8,0,0,1,.59.48,3.42,3.42,0,0,1,1,2.46A3.12,3.12,0,0,1,43.87,58ZM44,48.5a10.56,10.56,0,0,1-.72,3.83c-.16-.09-.32-.16-.49-.23l-.3-.14a5.42,5.42,0,0,0-.81-.24l-.14,0-.15,0A8.49,8.49,0,0,0,41.25,45H43.4A10.54,10.54,0,0,1,44,48.5ZM47,43H13V28H23.29l.21.21.31.31.41.36.34.28.44.31.36.24.47.26.38.2.51.21.39.15.56.16.38.1c.21,0,.43.08.64.11l.33.05a8.9,8.9,0,0,0,2,0l.33-.05c.22,0,.43-.06.64-.11l.38-.1.55-.16.4-.15.5-.21.39-.2.46-.25.38-.25.42-.3.36-.29.39-.35.32-.33.2-.2H47Zm2-18.95v-4c2.35.29,8,1.73,8,8.93v7.26l-.12,0-.34-.09-.17,0L55.87,36h0l-.33,0a4.47,4.47,0,0,0-.72.06,3.79,3.79,0,0,0-.7.18l-.08,0V29C54,27.4,52.92,24.48,49,24.05ZM58,41H53.09a2,2,0,0,1,.07-1.38,2.66,2.66,0,0,1,.55-.85,2.49,2.49,0,0,1,.82-.55,2.14,2.14,0,0,1,.56-.17,2.57,2.57,0,0,1,1.76.36,1.74,1.74,0,0,1,.37.3l.08.08A2.42,2.42,0,0,1,58,40.5,2.53,2.53,0,0,1,58,41Z"/><path d="M33.89,18.87A5,5,0,1,0,35,22,5,5,0,0,0,33.89,18.87Zm-1.55,5a3,3,0,0,1-4.67,0A2.94,2.94,0,0,1,27,22a3,3,0,0,1,5.33-1.88A2.94,2.94,0,0,1,33,22,3,3,0,0,1,32.34,23.87Z"/><path d="M23,31H16a1,1,0,0,0,0,2h7a1,1,0,0,0,0-2Z"/><path d="M23,35H16a1,1,0,0,0,0,2h7a1,1,0,0,0,0-2Z"/><path d="M23,39H16a1,1,0,0,0,0,2h7a1,1,0,0,0,0-2Z"/></g></svg>