<?xml version="1.0" ?><svg viewBox="0 0 60 60" xmlns="http://www.w3.org/2000/svg"><defs><style>.cls-1{fill:#7f8c8d;}.cls-2{fill:#894b9d;}.cls-3{fill:#955ba5;}.cls-4{fill:#f3d55b;}.cls-5{fill:#a5a5a4;}</style></defs><title/><g id="Roberto"><path class="cls-1" d="M58,38.07V29c0-10-10-10-10-10a18.85,18.85,0,0,0-.11-2,18,18,0,0,0-35.78,0A18.85,18.85,0,0,0,12,19S2,19,2,29v9.07a3.46,3.46,0,0,0-.91,3.22A1,1,0,0,0,2,42H6.91a1,1,0,0,0,1-.77A3.57,3.57,0,0,0,8,40.5a3.76,3.76,0,0,0-.23-1.26A3.64,3.64,0,0,0,7,38V29s0-4,5-4V43a1,1,0,0,0,1,1h2.91A11.59,11.59,0,0,0,15,48.5a11.47,11.47,0,0,0,1.34,5.39,4.47,4.47,0,0,0-1.17,4.4,1,1,0,0,0,1,.71h7.42a2.43,2.43,0,0,0,.16-.37A4,4,0,0,0,24,57.07a4.57,4.57,0,0,0-.3-1.62,4.55,4.55,0,0,0-3.45-2.82A7.43,7.43,0,0,1,20.52,44h19a7.43,7.43,0,0,1,.27,8.63A4.5,4.5,0,0,0,36,57.07a4,4,0,0,0,.29,1.56,2.43,2.43,0,0,0,.16.37h7.42a1,1,0,0,0,1-.71,4.47,4.47,0,0,0-1.17-4.4A11.47,11.47,0,0,0,45,48.5a11.59,11.59,0,0,0-.91-4.5H47a1,1,0,0,0,1-1V25c5,0,5,4,5,4v9a3.64,3.64,0,0,0-.77,1.19A3.76,3.76,0,0,0,52,40.5a3.57,3.57,0,0,0,.12.73,1,1,0,0,0,1,.77H58a1,1,0,0,0,1-.71A3.46,3.46,0,0,0,58,38.07Z"/><path class="cls-2" d="M47.89,17H36.24a8,8,0,0,0-12.48,0H12.11A18.85,18.85,0,0,0,12,19v8H23.76a8,8,0,0,0,12.48,0H48V19A18.85,18.85,0,0,0,47.89,17Z"/><path class="cls-3" d="M38,22a8,8,0,1,1-1.76-5A8,8,0,0,1,38,22Z"/><path class="cls-4" d="M30,26a4,4,0,1,1,3.12-1.5A4,4,0,0,1,30,26Z"/><path class="cls-5" d="M12,19v6c-5,0-5,4-5,4v9a3.47,3.47,0,0,0-1.12-.76,3.09,3.09,0,0,0-.8-.24,3.58,3.58,0,0,0-.58,0,3.42,3.42,0,0,0-1.87.55A2.7,2.7,0,0,0,2,38l0,0V29C2,19,12,19,12,19Z"/><path class="cls-5" d="M48,19v6c5,0,5,4,5,4v9a3.47,3.47,0,0,1,1.12-.76,3.09,3.09,0,0,1,.8-.24,3.58,3.58,0,0,1,.58,0,3.42,3.42,0,0,1,1.87.55A2.7,2.7,0,0,1,58,38l0,0V29C58,19,48,19,48,19Z"/><path class="cls-2" d="M24,57.07a4,4,0,0,1-.29,1.56,2.43,2.43,0,0,1-.16.37H16.13a1,1,0,0,1-1-.71,4.47,4.47,0,0,1,1.17-4.4,3.64,3.64,0,0,1,.75-.61,4.42,4.42,0,0,1,2.41-.71,4.49,4.49,0,0,1,4.5,4.5Z"/><path class="cls-2" d="M8,40.5a3.57,3.57,0,0,1-.12.73,1,1,0,0,1-1,.77H2a1,1,0,0,1-1-.71A3.46,3.46,0,0,1,2,38.07l0,0a2.7,2.7,0,0,1,.59-.48A3.42,3.42,0,0,1,4.5,37a3.58,3.58,0,0,1,.58,0,3.09,3.09,0,0,1,.8.24A3.47,3.47,0,0,1,7,38a3.64,3.64,0,0,1,.77,1.19A3.76,3.76,0,0,1,8,40.5Z"/><path class="cls-2" d="M52,40.5a3.57,3.57,0,0,0,.12.73,1,1,0,0,0,1,.77H58a1,1,0,0,0,1-.71A3.46,3.46,0,0,0,58,38.07l0,0a2.7,2.7,0,0,0-.59-.48A3.42,3.42,0,0,0,55.5,37a3.58,3.58,0,0,0-.58,0,3.09,3.09,0,0,0-.8.24A3.47,3.47,0,0,0,53,38a3.64,3.64,0,0,0-.77,1.19A3.76,3.76,0,0,0,52,40.5Z"/><path class="cls-5" d="M19,48.5a7.4,7.4,0,0,0,1.25,4.13,4.55,4.55,0,0,0-.75-.06,4.42,4.42,0,0,0-2.41.71,3.64,3.64,0,0,0-.75.61A11.47,11.47,0,0,1,15,48.5a11.59,11.59,0,0,1,.91-4.5h4.61A7.35,7.35,0,0,0,19,48.5Z"/><path class="cls-2" d="M36,57.07a4,4,0,0,0,.29,1.56,2.43,2.43,0,0,0,.16.37h7.42a1,1,0,0,0,1-.71,4.47,4.47,0,0,0-1.17-4.4,3.64,3.64,0,0,0-.75-.61,4.42,4.42,0,0,0-2.41-.71,4.49,4.49,0,0,0-4.5,4.5Z"/><path class="cls-5" d="M41,48.5a7.4,7.4,0,0,1-1.25,4.13,4.55,4.55,0,0,1,.75-.06,4.42,4.42,0,0,1,2.41.71,3.64,3.64,0,0,1,.75.61A11.47,11.47,0,0,0,45,48.5a11.59,11.59,0,0,0-.91-4.5H39.48A7.35,7.35,0,0,1,41,48.5Z"/><path class="cls-4" d="M23,33H16a1,1,0,0,1,0-2h7a1,1,0,0,1,0,2Z"/><path class="cls-4" d="M23,37H16a1,1,0,0,1,0-2h7a1,1,0,0,1,0,2Z"/><path class="cls-4" d="M23,41H16a1,1,0,0,1,0-2h7a1,1,0,0,1,0,2Z"/></g></svg>