<?xml version="1.0" ?><svg viewBox="0 0 60 60" xmlns="http://www.w3.org/2000/svg"><title/><g data-name="Bot 33" id="Bot_33"><path d="M55,10.65A3.93,3.93,0,0,0,55.86,9H58a2,2,0,0,0,2-2V4a1,1,0,0,0-2,0V7H55.86a3.94,3.94,0,0,0-2.4-2.71A3.55,3.55,0,0,0,53,4.15V2h3a1,1,0,0,0,0-2H53a2,2,0,0,0-2,2V4.13a4,4,0,0,0-2.08,6.4A5.49,5.49,0,0,1,47,13.72a21,21,0,0,0-34,0,5.49,5.49,0,0,1-1.91-3.2A4,4,0,0,0,9,4.13V2A2,2,0,0,0,7,0H4A1,1,0,0,0,4,2H7V4.15a3.3,3.3,0,0,0-.42.13A4,4,0,0,0,4.14,7H2V4A1,1,0,0,0,0,4V7A2,2,0,0,0,2,9H4.14A3.9,3.9,0,0,0,5,10.66a11.34,11.34,0,0,0,5.14,8.45,20.58,20.58,0,0,0-.27,13A11.36,11.36,0,0,0,5,40.35,3.93,3.93,0,0,0,4.14,42H2a2,2,0,0,0-2,2v3a1,1,0,0,0,2,0V44H4.14a3.94,3.94,0,0,0,2.4,2.71,3.55,3.55,0,0,0,.46.14V49H4a1,1,0,0,0,0,2H7a2,2,0,0,0,2-2V46.87a4,4,0,0,0,2.07-6.4,5.42,5.42,0,0,1,1.48-2.8,21,21,0,0,0,9.76,7.86A3,3,0,0,0,21,48v3H19.75a2,2,0,0,0-1.92,1.45l-1.43,5A2,2,0,0,0,18.33,60H41.67a2,2,0,0,0,1.92-2.55l-1.43-5A2,2,0,0,0,40.25,51H39V48a3,3,0,0,0-1.31-2.48,21,21,0,0,0,9.76-7.86,5.42,5.42,0,0,1,1.48,2.8A4,4,0,0,0,51,46.87V49a2,2,0,0,0,2,2h3a1,1,0,0,0,0-2H53V46.85a3.3,3.3,0,0,0,.42-.13A4,4,0,0,0,55.86,44H58v3a1,1,0,0,0,2,0V44a2,2,0,0,0-2-2H55.86A3.9,3.9,0,0,0,55,40.34a11.36,11.36,0,0,0-4.88-8.26,20.58,20.58,0,0,0-.27-13A11.34,11.34,0,0,0,55,10.65ZM50.22,7.09A2,2,0,0,1,52,6H52a2,2,0,0,1,.7.15,2,2,0,0,1,.58,3.36,2,2,0,0,1-.91.46l-.24,0a1.91,1.91,0,0,1-.52,0,2,2,0,0,1-1-.49l-.09-.06a2,2,0,0,1-.35-2.32ZM30,7a18.9,18.9,0,0,1,15.94,8.67A17.78,17.78,0,0,1,47.68,19,18.73,18.73,0,0,1,49,25h-10c0-.19-.06-.38-.09-.57s0-.17,0-.25q-.09-.42-.21-.82c0-.1-.07-.19-.1-.29s-.12-.35-.19-.51-.1-.22-.15-.32-.14-.3-.21-.44l-.19-.32c-.08-.13-.16-.27-.24-.4l-.22-.31L37,20.39l-.25-.29-.31-.34-.27-.27-.34-.31-.29-.24-.37-.27-.31-.21-.4-.24L34.16,18l-.43-.21-.34-.15-.46-.17-.34-.12-.5-.13-.33-.08-.58-.09-.29,0c-.29,0-.59,0-.89,0s-.6,0-.89,0l-.29,0-.58.09-.33.08-.5.13-.34.12-.46.17-.34.15-.43.21-.33.18-.4.24-.31.21-.37.27-.29.24-.34.31-.27.27-.31.34-.25.29-.28.37-.22.31c-.09.13-.16.27-.24.4l-.19.32c-.08.14-.14.29-.21.44s-.1.21-.15.32-.13.34-.19.52-.07.19-.1.28q-.12.4-.21.82c0,.08,0,.17,0,.25s-.07.38-.09.57H11a18.77,18.77,0,0,1,1.29-6,17.81,17.81,0,0,1,1.75-3.38A18.89,18.89,0,0,1,30,7Zm7,19a7,7,0,1,1-7-7A7,7,0,0,1,37,26ZM7.32,6.13A1.73,1.73,0,0,1,8,6a2,2,0,0,1,2,2,2,2,0,0,1-.58,1.41l-.09.06a2,2,0,0,1-.92.47l-.06,0a1.82,1.82,0,0,1-.46,0l-.27,0A2,2,0,0,1,6,8,2,2,0,0,1,7.32,6.13Zm0,5.81a4.15,4.15,0,0,0,.58.05H8l.42,0,.32,0h0l.07,0a3.7,3.7,0,0,0,.46-.12h0a7.54,7.54,0,0,0,2.54,3.63c-.1.16-.17.34-.26.51s-.31.57-.45.86-.16.29-.23.44A9.37,9.37,0,0,1,7.28,11.94Zm2.49,32A2,2,0,0,1,8,45H8a2,2,0,0,1-.71-.15,2,2,0,0,1-.58-3.36A1.94,1.94,0,0,1,7.61,41,2.07,2.07,0,0,1,8,41a2.12,2.12,0,0,1,.4,0,2,2,0,0,1,1,.49l.08.05a2,2,0,0,1,.36,2.33Zm-.45-4.69h0a3.4,3.4,0,0,0-.53-.13h0A3.75,3.75,0,0,0,8,39H8a4,4,0,0,0-.67.06h0a9.38,9.38,0,0,1,3.32-5c.05.13.13.25.18.39.14.31.28.61.43.91s.17.39.27.58A7.45,7.45,0,0,0,9.32,39.22ZM23,48a1,1,0,0,1,1-1h2a1,1,0,0,1,1,1v3H23Zm-3.25,5H29v5H18.33Zm21.92,5H31V53h9.25ZM33,51V48a1,1,0,0,1,1-1h2a1,1,0,0,1,1,1v3Zm-2-3v3H29V48a3,3,0,0,0-.2-1c.4,0,.8,0,1.2,0s.8,0,1.2,0A3,3,0,0,0,31,48Zm-1-3a19.05,19.05,0,0,1-16.35-9.34A18.25,18.25,0,0,1,12,32.17,18.63,18.63,0,0,1,11,27h10c0,.19.06.38.09.57s0,.17,0,.25q.09.42.21.82c0,.1.07.19.1.28s.12.35.19.52.1.21.15.32.14.3.21.44l.19.32c.08.13.16.27.24.4l.22.31.28.37.25.29.31.34.27.27.34.31.29.24.37.27.31.21.4.24.33.18.43.21.34.15.46.17.34.12.5.13.33.08.58.09.29,0c.29,0,.59,0,.89,0s.6,0,.89,0l.29,0,.58-.09.33-.08.5-.13.34-.12.46-.17.34-.15.43-.21.33-.18.4-.24.31-.21.37-.27.29-.24.34-.31.27-.27.31-.34.25-.29.28-.37.22-.31c.09-.13.16-.27.24-.4l.19-.32c.08-.14.14-.29.21-.44s.1-.21.15-.32.13-.34.19-.51.07-.19.1-.29q.12-.4.21-.82c0-.08,0-.17,0-.25s.07-.38.09-.57H49a18.64,18.64,0,0,1-1,5.18,18.28,18.28,0,0,1-1.62,3.49A19,19,0,0,1,30,45Zm22.68-.13A1.73,1.73,0,0,1,52,45a2,2,0,0,1-2-2,2,2,0,0,1,.6-1.43l.07-.06a1.85,1.85,0,0,1,1-.48,1.82,1.82,0,0,1,.46,0l.27,0A2,2,0,0,1,54,43,2,2,0,0,1,52.68,44.87Zm0-5.81-.23,0-.13,0h-.74l-.32,0a3.7,3.7,0,0,0-.57.14h0a7.45,7.45,0,0,0-2.17-3.31c.1-.19.18-.39.27-.58s.3-.6.43-.92c.06-.13.13-.25.18-.39A9.38,9.38,0,0,1,52.71,39.06ZM49.07,17.21c-.07-.15-.15-.29-.23-.44s-.3-.58-.45-.87-.17-.34-.26-.5a7.54,7.54,0,0,0,2.54-3.63h0a3.39,3.39,0,0,0,.54.13h0l.18,0a2.66,2.66,0,0,0,1,0l.22,0h0A9.37,9.37,0,0,1,49.07,17.21Z"/><path d="M26,26a4,4,0,1,0,4-4A4,4,0,0,0,26,26Zm6,0a2,2,0,1,1-2-2A2,2,0,0,1,32,26Z"/></g></svg>